<?xml version="1.0" encoding="UTF-8"?>
<svg width="52px" height="36px" viewBox="0 0 52 36" version="1.1" xmlns="http://www.w3.org/2000/svg" xmlns:xlink="http://www.w3.org/1999/xlink">
    <!-- Generator: Sketch 45.2 (43514) - http://www.bohemiancoding.com/sketch -->
    <title>Group 3</title>
    <desc>Created with Sketch.</desc>
    <defs></defs>
    <g id="Page-2" stroke="none" stroke-width="1" fill="none" fill-rule="evenodd">
        <g id="5" transform="translate(-619.000000, -312.000000)" fill="#EA1D2C">
            <g id="Group-2" transform="translate(55.000000, 153.000000)">
                <g id="Group-5">
                    <g id="Group-4" transform="translate(0.000000, 21.000000)">
                        <g id="cpf" transform="translate(0.000000, 37.000000)">
                            <g id="Group-13" transform="translate(0.000000, 80.000000)">
                                <g id="Group-11" transform="translate(46.000000, 8.000000)">
                                    <g id="Group-3" transform="translate(517.684659, 13.623047)">
                                        <path d="M3.14521284,1.78516455 C2.71978142,1.78516455 2.37215263,2.13279334 2.37215263,2.55988013 L2.37215263,32.1364685 C2.37215263,32.5618999 2.71978142,32.9095287 3.14521284,32.9095287 L49.3583217,32.9095287 C49.7854085,32.9095287 50.1330373,32.5618999 50.1330373,32.1364685 L50.1330373,2.55988013 C50.1330373,2.13279334 49.7854085,1.78516455 49.3583217,1.78516455 L3.14521284,1.78516455 Z M49.3583217,34.5649039 L3.14521284,34.5649039 C1.80601432,34.5649039 0.716777453,33.475667 0.716777453,32.1364685 L0.716777453,2.55988013 C0.716777453,1.21902624 1.80601432,0.129789369 3.14521284,0.129789369 L49.3583217,0.129789369 C50.6991756,0.129789369 51.7884125,1.21902624 51.7884125,2.55988013 L51.7884125,32.1364685 C51.7884125,33.475667 50.6991756,34.5649039 49.3583217,34.5649039 L49.3583217,34.5649039 Z" id="Fill-181"></path>
                                        <polygon id="Fill-183" points="0.716777453 9.17972548 51.7884125 9.17972548 51.7884125 7.5243503 0.716777453 7.5243503"></polygon>
                                        <polygon id="Fill-184" points="6.63474372 28.6452822 14.5209511 28.6452822 14.5209511 26.989907 6.63474372 26.989907"></polygon>
                                        <polygon id="Fill-185" points="17.0834719 28.6452822 24.9713346 28.6452822 24.9713346 26.989907 17.0834719 26.989907"></polygon>
                                        <polygon id="Fill-186" points="27.5355107 28.6452822 35.4200627 28.6452822 35.4200627 26.989907 27.5355107 26.989907"></polygon>
                                        <polygon id="Fill-187" points="37.9842389 28.6452822 45.8704462 28.6452822 45.8704462 26.989907 37.9842389 26.989907"></polygon>
                                        <path d="M41.2370511,17.8307162 C40.2934873,17.8307162 39.5253932,18.5988102 39.5253932,19.5423741 C39.5253932,20.4875933 40.2934873,21.254032 41.2370511,21.254032 C42.180615,21.254032 42.948709,20.4875933 42.948709,19.5423741 C42.948709,18.5988102 42.180615,17.8307162 41.2370511,17.8307162 Z M41.2370511,22.9094072 C39.3797202,22.9094072 37.870018,21.3997051 37.870018,19.5423741 C37.870018,17.6866985 39.3797202,16.175341 41.2370511,16.175341 C43.0943821,16.175341 44.6040842,17.6866985 44.6040842,19.5423741 C44.6040842,21.3997051 43.0943821,22.9094072 41.2370511,22.9094072 L41.2370511,22.9094072 Z" id="Fill-188"></path>
                                        <path d="M36.1583601,17.8307162 C35.2131408,17.8307162 34.4467021,18.5988102 34.4467021,19.5423741 C34.4467021,20.4875933 35.2131408,21.254032 36.1583601,21.254032 C37.1019239,21.254032 37.870018,20.4875933 37.870018,19.5423741 C37.870018,18.5988102 37.1019239,17.8307162 36.1583601,17.8307162 Z M36.1583601,22.9094072 C34.3010291,22.9094072 32.7913269,21.3997051 32.7913269,19.5423741 C32.7913269,17.6866985 34.3010291,16.175341 36.1583601,16.175341 C38.015691,16.175341 39.5253932,17.6866985 39.5253932,19.5423741 C39.5253932,21.3997051 38.015691,22.9094072 36.1583601,22.9094072 L36.1583601,22.9094072 Z" id="Fill-189"></path>
                                        <path d="M31.0780136,17.8307162 C30.1344498,17.8307162 29.3663557,18.5988102 29.3663557,19.5423741 C29.3663557,20.4875933 30.1344498,21.254032 31.0780136,21.254032 C32.0232329,21.254032 32.7913269,20.4875933 32.7913269,19.5423741 C32.7913269,18.5988102 32.0232329,17.8307162 31.0780136,17.8307162 Z M31.0780136,22.9094072 C29.2206827,22.9094072 27.7109805,21.3997051 27.7109805,19.5423741 C27.7109805,17.6866985 29.2206827,16.175341 31.0780136,16.175341 C32.9353446,16.175341 34.4467021,17.6866985 34.4467021,19.5423741 C34.4467021,21.3997051 32.9353446,22.9094072 31.0780136,22.9094072 L31.0780136,22.9094072 Z" id="Fill-190"></path>
                                        <path d="M13.1850633,21.254032 C13.1834079,21.254032 13.1834079,21.254032 13.1817526,21.254032 L13.1850633,21.254032 Z M13.1022945,16.360743 L8.20735014,16.4435118 L8.2901189,21.3368008 L13.1022945,21.2556874 L13.1022945,16.360743 Z M13.1850633,22.9094072 L8.20735014,22.9094072 C7.33993355,22.9094072 6.63474372,22.2042174 6.63474372,21.3368008 L6.63474372,16.360743 C6.63474372,15.4933264 7.33993355,14.7881366 8.20735014,14.7881366 L13.1850633,14.7881366 C14.0524799,14.7881366 14.7576697,15.4933264 14.7576697,16.360743 L14.7576697,21.3368008 C14.7576697,22.2042174 14.0524799,22.9094072 13.1850633,22.9094072 L13.1850633,22.9094072 Z" id="Fill-191"></path>
                                    </g>
                                </g>
                            </g>
                        </g>
                    </g>
                </g>
            </g>
        </g>
    </g>
</svg>