<?xml version="1.0" encoding="UTF-8"?>
<svg width="55px" height="35px" viewBox="0 0 55 35" version="1.1" xmlns="http://www.w3.org/2000/svg" xmlns:xlink="http://www.w3.org/1999/xlink">
    <!-- Generator: Sketch 45.2 (43514) - http://www.bohemiancoding.com/sketch -->
    <title>Group 2</title>
    <desc>Created with Sketch.</desc>
    <defs></defs>
    <g id="Page-2" stroke="none" stroke-width="1" fill="none" fill-rule="evenodd">
        <g id="5" transform="translate(-617.000000, -226.000000)" fill="#EA1D2C">
            <g id="Group-2" transform="translate(55.000000, 153.000000)">
                <g id="Group-5">
                    <g id="Group-4" transform="translate(0.000000, 21.000000)">
                        <g id="cpf" transform="translate(0.000000, 37.000000)">
                            <g id="Group-13" transform="translate(30.000000, 0.000000)">
                                <g id="Group-2" transform="translate(532.000000, 15.000000)">
                                    <polyline id="Fill-220" points="2.09102457 12.2511609 0.554636202 12.2511609 0.554636202 0.855768323 11.9500288 0.855768323 11.9500288 2.3921567 2.09102457 2.3921567 2.09102457 12.2511609"></polyline>
                                    <polyline id="Fill-221" points="54.7491996 12.2511609 53.2128113 12.2511609 53.2128113 2.3921567 43.3538071 2.3921567 43.3538071 0.855768323 54.7491996 0.855768323 54.7491996 12.2511609"></polyline>
                                    <polyline id="Fill-222" points="54.7491996 34.9528355 43.3538071 34.9528355 43.3538071 33.4164471 53.2128113 33.4164471 53.2128113 23.5574429 54.7491996 23.5574429 54.7491996 34.9528355"></polyline>
                                    <polyline id="Fill-223" points="11.9500288 34.9528355 0.554636202 34.9528355 0.554636202 23.5574429 2.09102457 23.5574429 2.09102457 33.4164471 11.9500288 33.4164471 11.9500288 34.9528355"></polyline>
                                    <polygon id="Fill-224" points="5.58169896 29.990301 7.11808733 29.990301 7.11808733 5.81983915 5.58169896 5.81983915"></polygon>
                                    <polygon id="Fill-225" points="9.84056752 23.0780897 11.3769559 23.0780897 11.3769559 5.81983915 9.84056752 5.81983915"></polygon>
                                    <polygon id="Fill-226" points="9.84056752 29.990301 11.3769559 29.990301 11.3769559 25.7636966 9.84056752 25.7636966"></polygon>
                                    <polygon id="Fill-227" points="14.1025089 14.4128593 15.6388972 14.4128593 15.6388972 5.81983915 14.1025089 5.81983915"></polygon>
                                    <polygon id="Fill-228" points="14.1025089 29.990301 15.6388972 29.990301 15.6388972 17.0969298 14.1025089 17.0969298"></polygon>
                                    <polygon id="Fill-229" points="18.3629138 29.990301 19.8993022 29.990301 19.8993022 5.81983915 18.3629138 5.81983915"></polygon>
                                    <polygon id="Fill-230" points="22.6233188 29.990301 24.1597072 29.990301 24.1597072 21.5417014 22.6233188 21.5417014"></polygon>
                                    <polygon id="Fill-231" points="22.6233188 18.8560945 24.1597072 18.8560945 24.1597072 5.81983915 22.6233188 5.81983915"></polygon>
                                    <polygon id="Fill-232" points="26.8837237 29.990301 28.4201121 29.990301 28.4201121 5.81983915 26.8837237 5.81983915"></polygon>
                                    <polygon id="Fill-233" points="31.1441287 29.990301 32.6805171 29.990301 32.6805171 12.8764709 31.1441287 12.8764709"></polygon>
                                    <polygon id="Fill-234" points="31.1441287 10.1908641 32.6805171 10.1908641 32.6805171 5.81983915 31.1441287 5.81983915"></polygon>
                                    <polygon id="Fill-235" points="35.4045336 29.990301 36.940922 29.990301 36.940922 23.2179011 35.4045336 23.2179011"></polygon>
                                    <polygon id="Fill-236" points="35.4045336 20.0898144 36.940922 20.0898144 36.940922 5.81983915 35.4045336 5.81983915"></polygon>
                                    <polygon id="Fill-237" points="39.6649386 29.990301 41.201327 29.990301 41.201327 5.81983915 39.6649386 5.81983915"></polygon>
                                    <polygon id="Fill-238" points="43.9253436 29.990301 45.4617319 29.990301 45.4617319 17.1353395 43.9253436 17.1353395"></polygon>
                                    <polygon id="Fill-239" points="43.9253436 14.4497326 45.4617319 14.4497326 45.4617319 5.81983915 43.9253436 5.81983915"></polygon>
                                    <polygon id="Fill-240" points="48.1857485 29.990301 49.7221369 29.990301 49.7221369 5.81983915 48.1857485 5.81983915"></polygon>
                                </g>
                            </g>
                        </g>
                    </g>
                </g>
            </g>
        </g>
    </g>
</svg>