<?xml version="1.0" encoding="UTF-8"?>
<svg width="24px" height="22px" viewBox="0 0 24 22" version="1.1" xmlns="http://www.w3.org/2000/svg" xmlns:xlink="http://www.w3.org/1999/xlink">
    <!-- Generator: Sketch 45.2 (43514) - http://www.bohemiancoding.com/sketch -->
    <title>icone</title>
    <desc>Created with Sketch.</desc>
    <defs></defs>
    <g id="Page-2" stroke="none" stroke-width="1" fill="none" fill-rule="evenodd">
        <g id="5" transform="translate(-744.000000, -173.000000)" stroke="#4B5D67" stroke-width="0.5" fill="#526570">
            <g id="resumo-compra" transform="translate(744.000000, 174.000000)">
                <g id="icone" transform="translate(1.000000, 0.000000)">
                    <path d="M7.1819572,15.8470162 L3.48616835,0.872380644 C3.4802539,0.846504947 3.45511751,0.827283001 3.4277632,0.827283001 L0.196258292,0.827283001 L0.196258292,0.08797737 L3.4277632,0.08797737 C3.7951981,0.08797737 4.11457813,0.337123368 4.20329481,0.694207987 L7.89982296,15.6703221 L7.1819572,15.8470162" id="Fill-18"></path>
                    <path d="M7.33425416,16.0421929 C6.3820285,16.0421929 5.6064969,16.8169852 5.6064969,17.7699501 C5.6064969,18.7221758 6.3820285,19.4969681 7.33425416,19.4969681 C8.28647981,19.4969681 9.06201141,18.7221758 9.06201141,17.7699501 C9.06201141,16.8169852 8.28647981,16.0421929 7.33425416,16.0421929 Z M7.33425416,20.2362737 C5.9739318,20.2362737 4.86719127,19.1295332 4.86719127,17.7699501 C4.86719127,16.4096278 5.9739318,15.3028872 7.33425416,15.3028872 C8.69457652,15.3028872 9.80131705,16.4096278 9.80131705,17.7699501 C9.80131705,19.1295332 8.69457652,20.2362737 7.33425416,20.2362737 L7.33425416,20.2362737 Z" id="Fill-19"></path>
                    <path d="M17.275697,16.0421929 C16.3234713,16.0421929 15.5479397,16.8169852 15.5479397,17.7699501 C15.5479397,18.7221758 16.3234713,19.4969681 17.275697,19.4969681 C18.2279226,19.4969681 19.0034542,18.7221758 19.0034542,17.7699501 C19.0034542,16.8169852 18.2279226,16.0421929 17.275697,16.0421929 Z M17.275697,20.2362737 C15.9153746,20.2362737 14.8086341,19.1295332 14.8086341,17.7699501 C14.8086341,16.4096278 15.9153746,15.3028872 17.275697,15.3028872 C18.63528,15.3028872 19.7427599,16.4096278 19.7427599,17.7699501 C19.7427599,19.1295332 18.63528,20.2362737 17.275697,20.2362737 L17.275697,20.2362737 Z" id="Fill-20"></path>
                    <polygon id="Fill-21" points="9.43166423 17.6102601 15.1782869 17.6102601 15.1782869 16.8709545 9.43166423 16.8709545"></polygon>
                    <polygon id="Fill-22" points="4.53598234 3.64847329 16.917873 3.64847329 16.917873 2.90916766 4.53598234 2.90916766"></polygon>
                    <path d="M18.6574592,14.0963405 L7.03261746,14.0963405 L7.03261746,13.3570348 L18.6574592,13.3570348 C18.7143857,13.3570348 18.7646585,13.3208089 18.7831412,13.2675788 L22.0331287,3.82516733 C22.05309,3.7689801 22.0301715,3.72536107 22.0153854,3.70466052 C22.0005993,3.68395996 21.9673305,3.64847329 21.9074467,3.64847329 L16.6118005,3.64847329 L16.6118005,2.90916766 L21.9074467,2.90916766 C22.1891222,2.90916766 22.4537936,3.0466785 22.6171802,3.27512394 C22.7805667,3.50430869 22.8234464,3.80003094 22.7317725,4.06544166 L19.481785,13.5078532 C19.3612782,13.8597627 19.0300692,14.0963405 18.6574592,14.0963405" id="Fill-23"></path>
                    <polygon id="Fill-24" points="9.70003217 10.4116412 16.9932822 10.4116412 16.9932822 9.67233557 9.70003217 9.67233557"></polygon>
                    <polygon id="Fill-25" points="8.53118997 7.51947757 18.1621244 7.51947757 18.1621244 6.78017194 8.53118997 6.78017194"></polygon>
                </g>
            </g>
        </g>
    </g>
</svg>