<?xml version="1.0" encoding="utf-8"?>
<!-- Generator: Adobe Illustrator 16.0.0, SVG Export Plug-In . SVG Version: 6.00 Build 0)  -->
<!DOCTYPE svg PUBLIC "-//W3C//DTD SVG 1.1//EN" "http://www.w3.org/Graphics/SVG/1.1/DTD/svg11.dtd">
<svg version="1.1" id="Layer_1" xmlns="http://www.w3.org/2000/svg" xmlns:xlink="http://www.w3.org/1999/xlink" x="0px" y="0px"
	 width="22px" height="22px" viewBox="0 0 22 22" enable-background="new 0 0 22 22" xml:space="preserve">
<path fill="#526571" d="M11,1C5.478,1,1,5.478,1,11c0,5.521,4.478,10,10,10c5.521,0,10-4.479,10-10C21,5.479,16.521,1,11,1z"/>
<g>
	<g>
		<path fill="#FFFFFF" d="M11,1C5.478,1,1,5.478,1,11c0,5.521,4.478,10,10,10c5.521,0,10-4.479,10-10C21,5.479,16.521,1,11,1z
			 M13.081,16.498c-0.515,0.203-0.924,0.357-1.231,0.465c-0.307,0.105-0.663,0.159-1.067,0.159c-0.623,0-1.108-0.151-1.454-0.456
			c-0.345-0.305-0.517-0.689-0.517-1.157c0-0.183,0.013-0.368,0.039-0.558c0.026-0.19,0.067-0.403,0.125-0.645l0.644-2.273
			c0.057-0.219,0.106-0.426,0.145-0.62s0.057-0.373,0.057-0.535c0-0.29-0.06-0.493-0.18-0.607c-0.121-0.114-0.348-0.17-0.688-0.17
			c-0.166,0-0.337,0.024-0.513,0.076c-0.173,0.053-0.324,0.102-0.448,0.149l0.17-0.701c0.421-0.172,0.826-0.319,1.21-0.441
			c0.386-0.124,0.75-0.185,1.092-0.185c0.619,0,1.097,0.15,1.433,0.449c0.334,0.299,0.504,0.687,0.504,1.164
			c0,0.1-0.012,0.273-0.035,0.523s-0.066,0.477-0.129,0.688l-0.641,2.269c-0.054,0.181-0.1,0.39-0.142,0.622
			s-0.062,0.41-0.062,0.531c0,0.301,0.067,0.507,0.202,0.615s0.368,0.164,0.7,0.164c0.156,0,0.332-0.027,0.53-0.082
			c0.195-0.055,0.338-0.104,0.428-0.144L13.081,16.498z M12.968,7.289c-0.298,0.278-0.657,0.417-1.079,0.417
			c-0.419,0-0.782-0.139-1.083-0.417c-0.3-0.278-0.452-0.616-0.452-1.01s0.153-0.732,0.452-1.013c0.301-0.281,0.664-0.42,1.083-0.42
			c0.422,0,0.781,0.139,1.079,0.42c0.3,0.28,0.448,0.619,0.448,1.013C13.416,6.675,13.268,7.011,12.968,7.289z"/>
	</g>
</g>
</svg>
