<?xml version="1.0" encoding="utf-8"?>
<!-- Generator: Adobe Illustrator 16.0.0, SVG Export Plug-In . SVG Version: 6.00 Build 0)  -->
<!DOCTYPE svg PUBLIC "-//W3C//DTD SVG 1.1//EN" "http://www.w3.org/Graphics/SVG/1.1/DTD/svg11.dtd">
<svg version="1.1" id="Layer_1" xmlns="http://www.w3.org/2000/svg" xmlns:xlink="http://www.w3.org/1999/xlink" x="0px" y="0px"
	 width="22px" height="22px" viewBox="0 0 22 22" enable-background="new 0 0 22 22" xml:space="preserve">
<g>
	<g>
		<path fill="#9DB0BD" d="M11,1C5.478,1,1,5.478,1,11s4.478,10,10,10c5.521,0,10-4.479,10-10S16.521,1,11,1z M13.081,16.498
			c-0.515,0.203-0.924,0.357-1.231,0.464c-0.307,0.106-0.663,0.16-1.068,0.16c-0.623,0-1.108-0.152-1.454-0.456
			c-0.345-0.305-0.517-0.689-0.517-1.157c0-0.183,0.013-0.369,0.038-0.558c0.026-0.19,0.067-0.404,0.125-0.643l0.644-2.276
			c0.057-0.218,0.106-0.426,0.145-0.619c0.039-0.195,0.058-0.374,0.058-0.536c0-0.289-0.06-0.493-0.179-0.607
			c-0.121-0.114-0.349-0.17-0.688-0.17c-0.166,0-0.337,0.024-0.512,0.076c-0.173,0.053-0.324,0.102-0.448,0.149l0.17-0.701
			c0.421-0.172,0.825-0.319,1.21-0.441c0.385-0.124,0.75-0.185,1.092-0.185c0.618,0,1.096,0.151,1.432,0.449
			c0.335,0.299,0.503,0.688,0.503,1.165c0,0.099-0.012,0.273-0.034,0.522c-0.023,0.25-0.066,0.477-0.129,0.687l-0.641,2.268
			c-0.053,0.183-0.1,0.391-0.142,0.623c-0.041,0.233-0.062,0.411-0.062,0.53c0,0.302,0.066,0.507,0.202,0.616
			c0.134,0.109,0.368,0.164,0.7,0.164c0.156,0,0.332-0.027,0.53-0.082c0.196-0.054,0.338-0.102,0.428-0.144L13.081,16.498z
			 M12.968,7.289c-0.299,0.278-0.658,0.417-1.079,0.417c-0.42,0-0.782-0.139-1.084-0.417c-0.3-0.278-0.451-0.615-0.451-1.01
			c0-0.394,0.152-0.732,0.451-1.013c0.302-0.281,0.664-0.421,1.084-0.421c0.421,0,0.781,0.14,1.079,0.421
			c0.299,0.28,0.448,0.619,0.448,1.013C13.416,6.674,13.267,7.011,12.968,7.289z"/>
	</g>
</g>
</svg>
