<?xml version="1.0" encoding="UTF-8"?>
<svg width="57px" height="31px" viewBox="0 0 57 31" version="1.1" xmlns="http://www.w3.org/2000/svg" xmlns:xlink="http://www.w3.org/1999/xlink">
    <!-- Generator: Sketch 45.2 (43514) - http://www.bohemiancoding.com/sketch -->
    <title>ifood-logo</title>
    <desc>Created with Sketch.</desc>
    <defs></defs>
    <g id="Page-1" stroke="none" stroke-width="1" fill="none" fill-rule="evenodd">
        <g id="ifood-logo" fill-rule="nonzero" fill="#FFFFFF">
            <path d="M0.00477361548,17.2973907 L4.34231327,17.2973907 L6.7520575,5.30891328 L2.41451785,5.30891328 L0.00477361548,17.2973907 Z M3.31817196,4.22452863 L8.43887852,4.22452863 L9.28228912,0.00747564506 L4.16158256,0.00747564506 L3.31817196,4.22452863 Z M6.02913429,20.6710321 L10.3666732,20.6710321 L13.017392,7.71865733 L16.2705478,7.71865733 L16.7524955,5.30891328 L13.5595844,5.30891328 L13.6800717,4.76672096 C13.8608037,3.74257911 14.2222641,2.59794987 15.8488428,2.59794987 C16.8127401,2.59794987 17.7163946,2.65819446 18.620049,3.0798994 L19.1019986,0.549667967 C18.0778567,0.188205821 16.9934703,0.00747564506 15.9693302,0.00747564506 C12.4751997,0.00747564506 10.0654557,2.05575755 9.16180191,5.30891328 L7.65571161,5.30891328 L7.1737628,7.71865733 L8.67985292,7.71865733 L6.02913429,20.6710321 Z" id="path2"></path>
            <path d="M19.7646783,17.5383655 C24.8853839,17.5383655 28.4397572,12.8996076 28.4397572,9.10425953 C28.4397572,6.27281054 25.8492812,5.06793851 23.3190497,5.06793851 C17.7163946,5.06793851 14.6439708,10.0681568 14.6439708,13.5020427 C14.6439708,16.3334935 17.2946896,17.5383655 19.7646783,17.5383655 L19.7646783,17.5383655 Z M33.5002201,17.5383655 C38.6209257,17.5383655 42.1752972,12.8996076 42.1752972,9.10425953 C42.1752972,6.27281054 39.5245784,5.06793851 36.994347,5.06793851 C31.3916936,5.06793851 28.319268,10.0681568 28.319268,13.5020427 C28.319268,16.3334935 31.0302296,17.5383655 33.5002183,17.5383655 L33.5002201,17.5383655 Z M49.223801,17.2973907 L53.5010968,17.2973907 L56.9952255,0.248450409 L52.6576869,0.248450409 L51.6335451,5.30891328 L49.8262379,5.12818131 C45.6091849,5.12818131 41.7535941,10.5501063 41.7535941,14.4056972 C41.7535941,15.9720313 42.7777341,17.5383655 44.5247985,17.5383655 C46.9947853,17.5383655 48.7418515,16.3334935 49.464774,15.1286215 L49.7057487,15.1286215 L49.223801,17.2973907 Z M35.8497213,26.2736873 C32.4828622,29.0630412 28.1586836,30.4251577 23.8009993,30.0690353 C18.0778567,29.7075732 13.9812911,25.30979 13.2583668,20.6710321 L13.4993416,20.6710321 C14.824701,23.5627256 18.0176121,26.2736873 21.9334475,26.695394 C25.9095258,27.1773417 30.6687711,25.3700346 33.2592453,22.9000459 L30.3675517,20.6710321 L39.1028753,20.6710321 L37.1750807,29.9485479 L35.9099623,26.3339318 L35.8497213,26.2736873 Z" id="path4"></path>
        </g>
    </g>
</svg>