<svg xmlns="http://www.w3.org/2000/svg" viewBox="0 0 125.91 24.09"><defs><style>.cls-1{fill:#fff;fill-rule:evenodd;}</style></defs><title>Ativo 1</title><g id="Camada_2" data-name="Camada 2"><g id="Camada_1-2" data-name="Camada 1"><g id="Page-1"><g id="Group"><path id="Fill-72" class="cls-1" d="M3.39,4.38c-1.5,1.86-2,4.52-2,7.58s.38,5.77,1.86,7.67,4,3,8.49,3c4.9,0,7.46-1.14,8.77-3S22,15,22,12s-.34-5.74-1.78-7.59-4-2.94-8.56-2.94C7.44,1.43,4.88,2.54,3.39,4.38ZM0,12C0,8.6.54,5.65,2.28,3.49S7,0,11.66,0c5,0,8,1.31,9.68,3.49S23.43,8.61,23.43,12s-.16,6.3-1.71,8.52-4.49,3.61-9.94,3.61c-4.95,0-7.89-1.36-9.62-3.59S0,15.3,0,12Z"/><polyline id="Fill-73" class="cls-1" points="29.19 17.98 34.91 17.98 35.37 13.63 37.13 17.98 38.77 17.98 40.65 13.42 41.03 17.93 46.83 17.93 46.83 5.71 40.03 5.71 38 11.69 37.54 10.46 35.99 5.71 29.19 5.7 29.19 17.98"/><path id="Fill-74" class="cls-1" d="M48.15,17.93H54l1-2.22,3.21,0,1.05,2.18h6L61,5.65H52.23Zm9.43-4.39H55.64l1-2.63.93,2.63Z"/><path id="Fill-75" class="cls-1" d="M72.41,7.79l.4-.06a1.46,1.46,0,0,1,1.34,1.53c0,.68,0,1.42-1.22,1.65l-.52-.06ZM66,17.93h6.35l0-5h4.16c3.49,0,4.6-1.5,4.6-3.47,0-2.3-1.33-3.64-4.83-3.64H66V17.93Z"/><polyline id="Fill-76" class="cls-1" points="82.45 17.88 88.82 17.88 88.8 12.99 95.35 12.99 95.35 11.11 88.8 11.11 88.82 7.63 95.35 7.63 95.35 5.65 82.45 5.65 82.45 17.88"/><path id="Fill-77" class="cls-1" d="M103,8.72V7.79c1.42-.19,1.24,1.34,1.24,2.27,0,.77.09,1.08-.68,1.49H103Zm-6.35,9.21H103l0-4.07h.64a1.67,1.67,0,0,1,1.28,1.76,7.89,7.89,0,0,0,.25,2.31h6.54a10.37,10.37,0,0,0-.12-2.22l-.26-.88a5,5,0,0,0-2.27-2.48,3.38,3.38,0,0,0,2.26-3.06,3.77,3.77,0,0,0-1.58-3.14,6.48,6.48,0,0,0-2.9-.45H96.68V17.93Z"/><polyline id="Fill-78" class="cls-1" points="112.88 18.09 125.87 18.09 125.87 15.97 119.17 15.97 119.17 12.99 125.91 12.99 125.91 11.11 119.17 11.11 119.17 7.6 125.87 7.6 125.87 5.65 112.88 5.65 112.88 18.09"/><path id="Fill-79" class="cls-1" d="M10.82,18.14V14.46L7,14.62a4.42,4.42,0,0,1-1.2-.06,2.33,2.33,0,0,1-2-3h0A4,4,0,0,1,4,10.88a4.51,4.51,0,0,1,.26-.64h0A4.41,4.41,0,0,1,7.7,7.59a5.75,5.75,0,0,1,4.24-1.95,5.8,5.8,0,0,1,4.25,2,4.41,4.41,0,0,1,3.49,2.65h0a6.11,6.11,0,0,1,.26.64,6.88,6.88,0,0,1,.18.72h0a2.34,2.34,0,0,1-2,3,4.4,4.4,0,0,1-1.2.06l-3.83-.16v3.68Zm1.12-5.72,2.21-4a3.24,3.24,0,0,0-2.21-.77,3.26,3.26,0,0,0-2.21.77Zm-5.43.2,3-.13L7.72,9.64A2.3,2.3,0,0,0,6,11.11H6a3.33,3.33,0,0,0-.16.4,3,3,0,0,0-.11.43h0C5.66,12.55,6.34,12.61,6.51,12.62Zm10.87,0c.16,0,.85-.07.74-.68h0a3,3,0,0,0-.1-.43,3.42,3.42,0,0,0-.17-.4h0a2.29,2.29,0,0,0-1.7-1.47L14.4,12.49l3,.13Z"/></g></g></g></g></svg>