<?xml version="1.0" encoding="utf-8"?>
<!-- Generator: Adobe Illustrator 23.0.4, SVG Export Plug-In . SVG Version: 6.00 Build 0)  -->
<svg version="1.1" id="Camada_1" xmlns="http://www.w3.org/2000/svg" xmlns:xlink="http://www.w3.org/1999/xlink" x="0px" y="0px"
	 viewBox="0 0 13 24" style="enable-background:new 0 0 13 24;" xml:space="preserve">
<style type="text/css">
	.st0{fill:#9CB0BD;}
</style>
<g id="Capa_1">
	<path class="st0" d="M0.3,12c0,0.2,0.1,0.5,0.3,0.6l10.6,10.5c0.3,0.4,0.9,0.4,1.3,0c0.4-0.3,0.4-0.9,0-1.3c0,0,0,0,0,0L2.5,12
		l9.9-9.9c0.4-0.3,0.4-0.9,0-1.3c-0.3-0.4-0.9-0.4-1.3,0c0,0,0,0,0,0L0.6,11.4C0.4,11.5,0.3,11.8,0.3,12z"/>
</g>
</svg>
